<svg width="26" height="19" viewBox="0 0 26 19" fill="none" xmlns="http://www.w3.org/2000/svg">
<path d="M21.6139 2.02473C19.9769 1.32494 18.2501 0.828517 16.4779 0.548096C16.4615 0.548096 16.4451 0.550622 16.4312 0.556938C16.416 0.563254 16.4021 0.570833 16.392 0.582201C16.176 0.948517 15.9234 1.42599 15.7541 1.79231C13.8392 1.52578 11.8939 1.52578 9.98025 1.79231C9.78952 1.37673 9.57352 0.972517 9.33099 0.582201C9.3171 0.560727 9.28299 0.548096 9.2451 0.548096C7.47289 0.831043 5.74615 1.3262 4.1091 2.02473C4.09646 2.02473 4.0851 2.0361 4.07246 2.0462C0.800885 6.56452 -0.102273 10.959 0.343622 15.3094C0.343622 15.3321 0.356253 15.3536 0.380253 15.3662C2.54404 16.8315 4.62699 17.7195 6.68468 18.3068C6.71878 18.3182 6.75541 18.3068 6.76804 18.2854C7.24931 17.6753 7.68257 17.031 8.0552 16.3527C8.0792 16.3085 8.0552 16.2643 8.0072 16.2542C7.32889 16.0104 6.66825 15.7211 6.03415 15.3877C5.98615 15.3662 5.98615 15.2993 6.02152 15.2651C6.15415 15.1767 6.28678 15.0769 6.41941 14.9885C6.43078 14.9784 6.44467 14.9734 6.45983 14.9708C6.47373 14.9683 6.48889 14.9708 6.50278 14.9771C10.6409 16.7203 15.1049 16.7203 19.1963 14.9771C19.2101 14.9708 19.2253 14.9683 19.2405 14.9708C19.2544 14.9734 19.2683 14.9784 19.2796 14.9885C19.4123 15.0883 19.5436 15.1767 19.6763 15.2778C19.7243 15.3094 19.7243 15.3763 19.6649 15.399C19.0396 15.7439 18.3765 16.0205 17.6918 16.2643C17.6438 16.2769 17.6312 16.3313 17.6438 16.3654C18.0291 17.0411 18.4624 17.6854 18.931 18.2955C18.9676 18.3068 19.0043 18.3182 19.0396 18.3068C21.307 17.6689 23.443 16.6736 25.3554 15.3662C25.3668 15.3611 25.3756 15.3523 25.3832 15.3435C25.3895 15.3334 25.392 15.322 25.392 15.3094C25.9213 10.2833 24.5129 5.92031 21.6632 2.0462C21.6493 2.0361 21.6379 2.02473 21.6139 2.02473ZM8.68173 12.6567C7.44257 12.6567 6.40804 11.6033 6.40804 10.3035C6.40804 9.0062 7.41857 7.95146 8.68173 7.95146C9.95625 7.95146 10.9668 9.01757 10.9554 10.3047C10.9554 11.6033 9.94489 12.6567 8.68173 12.6567ZM17.0666 12.6567C15.8274 12.6567 14.7929 11.6033 14.7929 10.3035C14.7929 9.0062 15.8034 7.95146 17.0666 7.95146C18.3424 7.95146 19.3529 9.01757 19.3403 10.3047C19.3403 11.6033 18.3424 12.6567 17.0666 12.6567Z" fill="white"/>
</svg>
