<svg width="21" height="20" viewBox="0 0 21 20" fill="none" xmlns="http://www.w3.org/2000/svg">
<path d="M19.1673 0.512281H1.93779C1.54748 0.508491 1.17106 0.651228 0.891897 0.908912C0.611476 1.16533 0.452318 1.51649 0.447266 1.88407V18.1649C0.452318 18.5325 0.612739 18.8824 0.891897 19.1388C1.17106 19.3952 1.54748 19.538 1.93779 19.5342H19.1673C19.5576 19.5367 19.934 19.394 20.2144 19.1375C20.4936 18.8799 20.6527 18.5287 20.6578 18.1611V1.87902C20.6515 1.5127 20.4898 1.16281 20.2106 0.907649C19.9315 0.651228 19.5576 0.509754 19.1673 0.512281ZM6.43969 16.7287H3.43969V7.64028H6.43969V16.7262V16.7287ZM4.94916 6.40365C4.51716 6.40744 4.09905 6.25839 3.77695 5.98681C3.45484 5.71649 3.25148 5.34133 3.20727 4.93712C3.16179 4.53291 3.278 4.12744 3.53442 3.79902C3.78958 3.4706 4.166 3.24449 4.58916 3.16365C5.01232 3.08154 5.45316 3.15228 5.82453 3.35944C6.1959 3.56786 6.47253 3.89754 6.59884 4.2866C6.72642 4.67565 6.69484 5.09502 6.51169 5.4626C6.32727 5.83144 6.00516 6.12196 5.606 6.2786C5.39505 6.35944 5.16895 6.40112 4.94032 6.40112L4.94916 6.40365ZM17.6755 16.7274H14.6755V12.3064C14.6755 11.2542 14.6565 9.90007 13.1167 9.90007C11.5782 9.90007 11.3167 11.0483 11.3167 12.2394V16.7274H8.32053V7.64154H11.1967V8.88954H11.2372C11.6376 8.17586 12.614 7.42175 14.0742 7.42175C17.1121 7.41544 17.6755 9.29754 17.6755 11.738V16.7274Z" fill="white"/>
</svg>
