<svg width="24" height="24" viewBox="0 0 24 24" fill="none" xmlns="http://www.w3.org/2000/svg">
<path d="M23.2368 12.0247C23.2368 18.3038 18.1476 23.3931 11.8684 23.3931C5.58926 23.3931 0.5 18.3038 0.5 12.0247C0.5 5.74551 5.58926 0.65625 11.8684 0.65625C18.1476 0.65625 23.2368 5.74551 23.2368 12.0247ZM12.2764 9.04867C11.1699 9.50846 8.96063 10.4609 5.6461 11.9047C5.108 12.1181 4.82632 12.3278 4.80105 12.5325C4.75684 12.8786 5.1901 13.015 5.78 13.2007C5.86084 13.2259 5.94421 13.2525 6.02884 13.279C6.60989 13.4685 7.39053 13.6895 7.796 13.6984C8.16484 13.7059 8.57537 13.5544 9.02884 13.2424C12.1261 11.1518 13.724 10.0958 13.8251 10.0731C13.8958 10.0567 13.9931 10.0365 14.06 10.0958C14.1269 10.1552 14.1194 10.2664 14.1131 10.2967C14.0701 10.4798 12.3686 12.0613 11.4895 12.8786C11.2141 13.1337 11.0196 13.3156 10.9804 13.356C10.8907 13.4495 10.7998 13.5367 10.7126 13.62C10.1733 14.1405 9.76905 14.5308 10.7354 15.1674C11.2002 15.4731 11.5716 15.7257 11.9417 15.9784C12.3459 16.2537 12.7501 16.5291 13.2731 16.8714C13.4057 16.9586 13.5333 17.0495 13.6558 17.1367C14.1269 17.4727 14.5501 17.7746 15.0731 17.7266C15.3775 17.6988 15.6907 17.4133 15.8499 16.5607C16.2263 14.5472 16.9678 10.1855 17.1383 8.38804C17.1535 8.23014 17.1345 8.02804 17.1194 7.93962C17.1042 7.8512 17.0726 7.72614 16.9577 7.63267C16.8213 7.52151 16.6116 7.49878 16.5168 7.50004C16.0899 7.50762 15.4331 7.73625 12.2764 9.04867Z" fill="white"/>
</svg>
